<?xml version="1.0" standalone="no"?>
<!DOCTYPE svg PUBLIC "-//W3C//DTD SVG 20010904//EN"
 "http://www.w3.org/TR/2001/REC-SVG-20010904/DTD/svg10.dtd">
<svg version="1.0" xmlns="http://www.w3.org/2000/svg"
 width="4000.000000pt" height="4000.000000pt" viewBox="0 0 4000.000000 4000.000000"
 preserveAspectRatio="xMidYMid meet">
<metadata>
Created by potrace 1.14, written by Peter Selinger 2001-2017
</metadata>
<g transform="translate(0.000000,4000.000000) scale(0.100000,-0.100000)"
fill="#000000" stroke="none">
<path d="M18945 34781 c-38 -16 -169 -72 -290 -124 -194 -84 -222 -94 -236
-81 -26 24 -103 17 -187 -17 -133 -53 -396 -205 -657 -379 -336 -225 -547
-431 -600 -587 l-13 -38 -109 -6 c-164 -9 -226 -32 -357 -127 -58 -43 -78 -52
-125 -56 -31 -4 -94 -11 -141 -16 -327 -41 -370 -51 -530 -128 -79 -38 -108
-58 -170 -122 -117 -120 -214 -301 -245 -463 -8 -40 -26 -162 -41 -272 -29
-220 -53 -307 -117 -429 -75 -143 -189 -244 -327 -292 -105 -37 -210 -37 -413
-1 -87 16 -165 27 -175 25 -23 -5 141 -169 220 -221 73 -48 184 -95 262 -112
l61 -13 -61 -1 c-136 -2 -309 48 -480 138 -109 57 -113 51 -11 -18 175 -118
379 -194 588 -220 85 -11 115 -21 63 -21 -44 0 -208 -44 -299 -79 -182 -70
-350 -206 -425 -344 -21 -39 -17 -36 51 34 82 83 120 113 194 153 28 15 39 19
25 9 -56 -40 -127 -115 -157 -165 -36 -60 -63 -153 -62 -213 l1 -40 10 30 c27
76 101 117 211 116 62 0 299 -49 328 -67 5 -3 -87 -100 -204 -217 -310 -308
-439 -478 -473 -622 -20 -86 -13 -175 20 -257 23 -57 23 -58 5 -82 -11 -14
-22 -39 -25 -58 -4 -18 -22 -64 -40 -103 -31 -64 -36 -94 -73 -365 l-40 -295
-111 -255 -111 -255 4 -95 c3 -68 12 -118 32 -177 l28 -83 -27 -197 c-61 -466
-96 -904 -128 -1603 -17 -381 -17 -1926 0 -2195 12 -190 36 -442 47 -512 5
-30 3 -34 -39 -54 -60 -28 -140 -115 -176 -191 -63 -134 -66 -262 -7 -381 34
-70 35 -79 66 -367 51 -485 73 -610 157 -905 67 -231 83 -324 129 -715 71
-604 106 -780 232 -1164 l55 -170 -17 -100 c-37 -211 11 -386 175 -634 59 -89
170 -213 218 -243 20 -12 35 -61 113 -374 323 -1292 582 -2029 969 -2758 l102
-192 5 -180 5 -180 -557 -625 c-306 -344 -564 -633 -573 -642 -10 -10 -826
-289 -1852 -634 -1740 -584 -1846 -619 -2055 -664 -209 -46 -811 -181 -1290
-289 -1415 -319 -2543 -611 -3267 -847 -128 -42 -236 -79 -240 -82 -7 -8 -2
-15 392 -553 146 -198 403 -550 573 -782 379 -518 596 -773 1120 -1317 395
-410 919 -896 1317 -1220 63 -52 130 -108 148 -124 18 -17 68 -57 112 -91 43
-33 163 -126 267 -206 1080 -837 2406 -1611 3701 -2160 385 -163 878 -354
1084 -419 l87 -27 5 41 c3 22 10 97 16 166 12 153 353 4030 367 4185 l8 80 39
-225 c73 -429 226 -1182 332 -1638 128 -551 294 -1158 438 -1597 56 -171 70
-204 81 -194 3 4 -30 213 -74 465 -69 399 -94 556 -116 729 -3 22 -6 106 -7
186 0 113 3 158 17 198 38 117 123 106 229 -29 44 -55 55 -85 186 -477 211
-636 372 -1147 630 -2007 77 -259 142 -471 144 -473 6 -7 261 -52 265 -47 5 5
-56 213 -276 938 -391 1291 -698 2210 -1386 4151 -241 678 -319 912 -363 1082
l-34 133 45 502 c25 277 70 775 101 1108 53 575 56 622 58 945 2 264 6 366 20
455 37 245 117 494 263 824 40 92 69 146 70 133 1 -12 7 -206 13 -431 9 -333
9 -411 -2 -426 -7 -10 -63 -83 -124 -163 -200 -265 -208 -298 -118 -504 104
-241 254 -503 428 -748 51 -71 127 -184 170 -250 323 -495 949 -1133 2331
-2375 83 -74 193 -173 245 -220 149 -134 546 -485 1166 -1029 203 -178 375
-329 382 -336 10 -9 -24 -54 -164 -216 -647 -747 -980 -1169 -1278 -1617 -362
-544 -635 -1114 -885 -1846 -34 -99 -60 -185 -57 -192 4 -10 233 -42 240 -33
1 2 29 81 61 174 50 149 190 524 198 531 1 2 31 -92 66 -209 134 -447 170
-546 194 -551 12 -3 99 -10 192 -16 94 -6 197 -12 230 -14 33 -3 47 -1 31 2
-27 7 -21 14 221 252 748 737 1334 1222 2082 1723 154 104 165 109 178 92 7
-11 12 -22 11 -26 -2 -4 -91 -68 -198 -141 -774 -531 -1314 -979 -2033 -1688
l-219 -215 109 -8 c147 -12 1341 -14 1583 -3 l195 8 120 105 c66 58 187 162
269 231 l149 126 -35 -65 c-30 -53 -62 -86 -192 -199 -86 -74 -168 -148 -183
-163 l-28 -29 125 7 c69 3 175 10 235 16 95 8 112 13 127 32 31 39 287 491
392 692 l102 194 68 -147 c75 -161 221 -449 295 -579 42 -75 49 -83 76 -83 34
0 225 26 230 32 2 2 -26 55 -62 118 -110 194 -293 561 -417 840 -292 655 -394
865 -604 1250 -116 212 -398 702 -581 1009 -145 243 -151 255 -134 271 10 10
128 97 263 195 847 617 1712 1268 2175 1639 584 467 1051 906 1491 1401 91
102 428 510 551 667 256 327 454 702 555 1052 52 182 96 443 99 596 l1 55 14
-67 c23 -118 44 -327 55 -568 12 -244 6 -1051 -11 -1575 -5 -160 -5 -363 1
-500 26 -661 -62 -1204 -336 -2056 -87 -271 -168 -506 -475 -1369 -269 -757
-417 -1195 -519 -1540 -120 -408 -271 -984 -259 -995 5 -6 249 64 261 74 4 4
30 95 58 202 149 577 316 1112 569 1824 372 1046 456 1285 543 1550 137 414
171 528 242 810 62 246 63 249 69 195 4 -30 92 -923 196 -1984 104 -1061 191
-1930 194 -1933 13 -13 603 253 1006 453 1651 819 3027 1802 4286 3059 458
457 816 859 1252 1402 223 279 699 920 689 929 -1 1 -985 374 -2187 829 -1202
455 -2268 863 -2370 907 -1676 721 -2106 891 -3178 1259 l-274 94 -81 110
c-45 61 -137 179 -204 262 l-122 153 27 697 28 698 115 220 c413 787 650 1468
909 2615 l57 255 70 6 c255 24 434 167 641 513 130 217 199 408 209 576 5 76
14 115 44 196 70 188 110 356 125 528 4 43 1 300 -6 571 -11 393 -11 633 -2
1191 11 650 13 704 32 769 48 167 -1 346 -130 475 -64 65 -115 92 -186 98
l-51 4 -12 312 c-15 391 -41 891 -87 1676 -30 496 -35 627 -26 675 6 33 20
108 31 168 68 358 76 723 24 1043 l-16 101 46 70 c120 180 133 320 56 569 -57
182 -170 447 -308 721 -33 68 -61 125 -61 127 0 2 42 27 94 55 208 112 379
274 501 476 29 46 3 17 -47 -56 -80 -114 -215 -226 -379 -313 -106 -57 -124
-59 -39 -4 81 53 234 204 284 281 42 64 130 227 123 227 -2 0 -20 -26 -40 -59
-79 -127 -280 -277 -490 -364 -45 -19 -48 -26 59 118 234 316 350 543 374 728
11 93 0 152 -49 253 -112 228 -344 465 -809 829 -146 114 -149 117 -166 173
-59 187 -212 526 -342 755 -170 298 -296 472 -454 625 -130 126 -378 330 -444
364 -27 14 -28 14 81 -75 249 -207 499 -506 673 -807 24 -41 50 -86 58 -100
39 -64 -12 6 -73 100 -198 306 -471 581 -780 784 -89 59 -297 180 -231 134
241 -166 350 -265 512 -463 84 -103 195 -276 287 -447 84 -159 239 -478 266
-551 l11 -29 -38 29 c-20 15 -211 158 -422 317 -212 159 -424 322 -471 362
-138 117 -394 360 -523 498 -127 136 -179 178 -266 212 -54 21 -56 25 -106
117 -28 53 -70 125 -94 162 -130 200 -291 246 -472 135 -28 -17 -51 -30 -52
-28 -1 2 -24 47 -51 101 -27 54 -72 128 -100 164 -97 129 -178 159 -401 149
l-141 -6 -25 38 c-14 20 -57 76 -96 124 -55 67 -85 93 -127 113 -50 25 -59 26
-112 17 l-58 -10 -50 47 c-27 26 -68 58 -89 71 -66 40 -168 29 -317 -34 -12
-5 -41 22 -110 100 -165 188 -352 335 -441 347 -24 4 -187 21 -363 38 -356 35
-369 35 -453 -23 -25 -17 -72 -58 -104 -91 -32 -33 -60 -58 -62 -56 -1 2 -17
40 -35 84 -62 153 -163 286 -239 317 -15 6 -160 21 -322 34 -273 21 -300 22
-355 8 -33 -9 -75 -22 -94 -30 -32 -13 -36 -13 -67 11 -95 72 -192 84 -309 36z
m3301 -4111 c55 -82 100 -146 102 -141 2 5 -6 46 -18 92 -12 46 -23 93 -26
104 -2 11 16 -20 41 -69 26 -48 48 -86 50 -84 4 4 -21 93 -40 143 -4 11 11 -8
33 -42 76 -115 155 -150 274 -119 228 60 358 7 487 -198 30 -48 31 -49 31 -20
0 16 -5 58 -10 93 -6 35 -9 65 -7 68 3 2 20 -37 38 -87 19 -50 35 -87 37 -82
1 5 -6 51 -18 102 -11 52 -18 95 -17 97 2 2 20 -39 40 -90 41 -101 61 -139 52
-97 -12 61 -35 223 -32 227 4 4 60 -201 73 -265 12 -60 24 -12 25 103 1 92 3
102 9 60 5 -27 12 -86 16 -130 7 -75 8 -77 15 -40 4 22 8 61 8 88 1 26 6 47
11 47 6 0 10 -9 10 -20 0 -30 30 -112 53 -144 35 -50 107 -74 266 -91 205 -22
261 -56 316 -192 l24 -57 30 64 c17 36 31 71 31 79 0 8 3 12 6 9 3 -3 1 -23
-4 -44 -6 -22 -13 -52 -17 -69 l-6 -30 18 25 c10 14 32 61 50 105 37 90 42 76
13 -35 -11 -41 -20 -79 -20 -85 0 -20 32 24 70 96 22 41 40 72 40 69 0 -3 -11
-45 -25 -95 -13 -49 -23 -90 -22 -92 8 -7 163 79 203 113 25 22 56 46 67 54
34 23 -50 -76 -108 -127 -50 -46 -50 -46 -10 -23 22 13 55 34 73 47 17 12 49
35 70 49 l37 26 -30 -27 c-16 -16 -52 -48 -80 -73 l-50 -45 60 33 c75 42 141
85 180 119 17 14 5 -1 -25 -33 -30 -32 -77 -73 -105 -92 -56 -38 -55 -39 24
-20 111 28 118 27 56 -4 -33 -17 -52 -28 -42 -25 10 2 61 7 115 10 l97 6 -78
-24 c-42 -13 -80 -26 -82 -29 -3 -3 30 -8 73 -10 201 -14 361 -97 555 -287 85
-84 121 -128 171 -212 305 -508 473 -1102 620 -2204 46 -340 98 -827 127
-1180 l12 -150 95 -210 c233 -518 344 -813 348 -925 1 -36 27 -227 58 -425
140 -908 224 -1605 267 -2205 16 -213 16 -632 1 -784 l-11 -120 47 -50 c212
-224 237 -416 73 -569 -45 -43 -165 -118 -208 -131 -28 -9 -39 -24 -46 -62 -6
-31 -4 -33 45 -54 76 -33 145 -37 194 -12 113 58 214 265 214 439 0 81 -31
213 -100 428 -39 121 -71 236 -72 255 -1 19 6 80 15 135 15 89 34 396 40 654
1 65 6 96 14 99 30 9 43 -71 83 -518 17 -190 44 -462 60 -605 79 -705 62 -835
-143 -1083 -89 -108 -97 -122 -97 -164 0 -40 27 -78 55 -78 32 0 75 31 106 77
34 49 114 223 143 311 10 29 20 52 22 50 7 -8 -15 -168 -35 -252 -11 -47 -45
-153 -76 -237 -49 -135 -55 -160 -55 -229 0 -109 -30 -215 -104 -365 -126
-256 -272 -442 -392 -501 -56 -27 -67 -29 -190 -30 -136 -1 -163 -8 -188 -47
-8 -12 -47 -166 -86 -342 -237 -1060 -440 -1683 -769 -2360 -640 -1318 -1701
-2562 -2736 -3210 -587 -367 -1141 -564 -1810 -642 -184 -21 -657 -24 -845 -5
-1115 114 -2153 632 -3079 1537 -641 627 -1150 1360 -1525 2198 -264 590 -466
1218 -726 2256 -67 269 -116 444 -128 460 -10 14 -36 32 -58 39 -21 7 -54 27
-72 45 -45 43 -141 186 -186 275 -71 140 -79 225 -39 390 l17 73 -41 125 c-35
105 -40 130 -31 155 5 16 9 62 6 102 -3 70 -6 77 -66 170 -51 79 -66 111 -78
170 -8 39 -17 83 -19 97 -3 15 7 4 27 -30 18 -30 66 -89 106 -130 66 -67 73
-72 67 -45 -4 17 -24 107 -45 200 -76 334 -141 726 -275 1648 -36 247 -63 452
-60 457 3 4 9 205 15 446 34 1496 56 2102 81 2219 24 117 53 204 106 323 67
153 216 452 346 695 l95 179 97 1446 c59 894 101 1471 110 1509 27 116 87 227
183 342 45 52 965 921 977 921 3 0 42 -32 87 -71 118 -101 227 -171 376 -239
250 -113 424 -159 754 -200 332 -40 683 -17 1072 71 252 57 541 140 936 271
l185 61 140 -12 c186 -15 321 -14 505 4 172 18 321 44 447 81 47 13 88 23 90
20 6 -6 -167 -61 -305 -97 -151 -39 -331 -66 -537 -80 -93 -6 -171 -12 -173
-14 -8 -7 292 -15 375 -10 335 23 735 127 1091 285 83 37 152 66 152 65 0 -2
-57 -40 -127 -85 -562 -364 -1238 -549 -1918 -526 -104 3 -219 8 -255 11 -63
4 -62 4 20 -10 123 -21 426 -45 560 -45 307 0 556 33 890 116 353 87 603 171
863 288 31 14 57 24 57 21 0 -5 -95 -51 -285 -137 -231 -105 -722 -271 -994
-337 -385 -94 -756 -141 -1134 -143 l-202 -1 120 -9 c132 -9 449 -3 645 13
550 45 1075 166 1540 356 245 100 559 272 725 397 130 97 364 298 449 385 44
44 83 78 86 76 4 -3 52 -72 106 -155z m-1676 -340 c-8 -5 -19 -10 -25 -10 -5
0 -3 5 5 10 8 5 20 10 25 10 6 0 3 -5 -5 -10z m6782 -7267 c39 -40 78 -131 78
-180 0 -61 -13 -86 -84 -168 -80 -92 -138 -177 -177 -258 l-29 -62 0 245 -1
245 48 97 c26 54 55 99 63 102 44 12 77 5 102 -21z m-13653 -185 c29 -139 66
-280 101 -382 16 -49 28 -91 26 -93 -2 -2 -34 35 -70 82 -54 68 -69 95 -75
134 -4 27 -22 71 -39 98 -36 56 -41 105 -18 171 15 42 46 95 52 89 2 -2 13
-46 23 -99z m13680 -720 c-1 -123 -5 -297 -8 -388 l-6 -165 -49 342 -49 342
49 45 c27 25 52 45 57 46 4 0 6 -100 6 -222z m-13468 -536 c52 -306 76 -497
90 -717 13 -215 9 -283 -9 -130 -26 219 -53 387 -82 502 -25 99 -33 156 -45
358 -8 132 -14 254 -14 270 1 27 2 26 10 -10 6 -22 28 -145 50 -273z m11270
-7076 c-22 -571 -111 -2842 -131 -3339 l-20 -499 -172 -206 c-278 -334 -438
-512 -688 -762 -554 -556 -1247 -1120 -2605 -2119 -552 -406 -806 -591 -811
-591 -3 0 -98 55 -212 122 l-207 121 -314 276 c-173 152 -395 348 -495 435
-677 595 -1337 1189 -1851 1665 -297 275 -970 951 -1106 1111 -327 383 -492
649 -586 946 l-42 129 -36 1374 c-20 755 -34 1375 -33 1377 2 2 49 -61 103
-139 500 -711 1148 -1353 1810 -1794 715 -476 1434 -745 2245 -840 230 -27
751 -24 980 5 886 112 1635 439 2389 1042 181 144 208 168 405 349 436 401
934 991 1292 1529 49 74 90 128 92 122 3 -7 -1 -148 -7 -314z m-4761 -7609
c38 -23 61 -45 73 -71 10 -21 16 -40 14 -42 -5 -5 -220 37 -229 45 -7 6 68
101 80 101 4 0 32 -15 62 -33z m-183 -315 c8 -5 -10 -25 -55 -59 -81 -62 -369
-302 -518 -433 -60 -52 -102 -85 -93 -75 166 209 208 252 403 411 198 162 227
179 263 156z m251 -48 c30 -6 27 -9 -124 -127 -404 -313 -826 -687 -1323
-1172 l-184 -180 82 122 c75 112 104 143 324 351 289 274 507 469 718 644 172
142 460 368 470 368 4 0 20 -3 37 -6z m862 -1188 c-1 -6 -26 -29 -58 -50 -109
-76 -348 -251 -537 -395 -668 -508 -1121 -903 -1761 -1534 l-242 -238 -10 30
c-10 29 -8 32 236 273 732 720 1235 1146 2097 1775 223 163 251 181 263 166 6
-9 12 -22 12 -27z"/>
<path d="M24820 25806 c0 -2 46 -37 103 -77 113 -81 315 -242 392 -313 45 -42
41 -40 -45 20 -149 106 -339 229 -409 264 -186 93 -329 94 -658 6 -461 -123
-506 -131 -788 -145 -121 -6 -328 -17 -460 -23 -132 -7 -275 -11 -317 -9 -91
3 -182 -18 -248 -56 -89 -52 -195 -174 -267 -308 -18 -33 -33 -56 -33 -52 0
21 77 204 126 295 30 56 53 102 50 102 -12 0 -115 -167 -156 -254 -83 -175
-134 -387 -159 -656 -6 -58 -13 -121 -17 -140 -10 -51 -1 -36 40 63 33 81 137
289 120 242 -41 -115 -93 -276 -98 -300 -5 -21 4 -11 30 35 20 36 66 117 102
180 87 156 129 206 68 82 -56 -112 -142 -322 -132 -322 2 0 42 62 89 138 47
75 99 153 116 172 23 26 18 14 -21 -50 -63 -105 -130 -261 -110 -260 4 0 23
17 42 36 62 63 150 116 230 139 20 6 15 -3 -30 -49 -30 -31 -49 -56 -44 -56 6
0 51 19 100 41 177 82 349 158 331 146 -10 -7 -79 -52 -154 -100 -74 -48 -133
-90 -131 -93 3 -2 61 16 129 42 175 65 432 154 436 150 2 -1 -58 -38 -133 -81
-185 -108 -183 -105 -91 -89 49 8 197 15 409 17 362 5 466 16 674 66 65 16
120 28 121 27 1 -1 -79 -35 -178 -75 -99 -41 -178 -75 -176 -77 1 -2 88 22
191 52 104 30 190 54 191 52 2 -2 -53 -23 -121 -47 -68 -25 -122 -46 -120 -48
1 -2 61 13 132 32 345 95 412 96 804 11 248 -54 635 -153 555 -142 -172 24
-582 60 -573 51 2 -2 65 -13 139 -24 142 -20 407 -77 519 -110 85 -25 66 -26
-62 -1 -212 40 -520 91 -531 87 -5 -1 16 -9 49 -16 32 -7 114 -28 182 -48 341
-97 634 -252 829 -436 46 -44 83 -75 83 -70 0 6 -34 57 -77 114 -86 118 -75
115 24 -5 37 -45 71 -85 75 -91 11 -12 -1 21 -41 110 -34 77 -22 66 42 -38 24
-39 50 -69 62 -72 11 -2 35 -6 53 -9 l32 -5 0 157 c0 379 -87 682 -284 986
-178 273 -485 547 -826 736 -52 29 -114 63 -137 77 -24 13 -43 22 -43 19z"/>
<path d="M15660 25599 c-326 -244 -557 -475 -702 -699 -86 -134 -164 -364
-187 -555 -12 -99 -14 -348 -3 -410 l7 -39 24 77 c14 42 26 75 28 73 2 -1 -4
-38 -13 -80 -9 -43 -14 -79 -12 -81 2 -2 39 59 83 135 44 76 81 137 82 136 2
-1 -24 -64 -56 -139 -33 -75 -58 -137 -56 -137 2 0 36 45 75 100 40 55 74 100
77 100 5 0 4 -2 -52 -90 -22 -36 -52 -83 -65 -105 -28 -46 -37 -51 99 50 282
209 691 401 1020 480 100 23 146 40 85 31 -16 -3 -81 -10 -144 -17 -63 -6
-151 -17 -195 -25 -44 -8 -87 -14 -95 -13 -46 2 310 87 520 125 l135 24 -235
-4 c-218 -4 -230 -3 -160 9 160 28 342 38 570 31 282 -8 518 -23 684 -42 71
-8 131 -12 133 -10 3 2 -45 23 -106 47 -61 24 -110 44 -108 45 1 1 72 -13 157
-32 85 -18 160 -32 165 -30 6 1 -18 13 -53 26 -34 13 -61 24 -59 26 2 2 41 -3
86 -11 128 -22 225 -27 641 -29 l385 -2 71 -26 c38 -14 85 -33 103 -42 18 -10
35 -16 37 -14 5 6 -180 148 -291 223 -55 37 -102 70 -105 73 -21 22 232 -121
343 -195 153 -101 147 -86 -23 60 -118 101 -132 114 -110 102 8 -5 94 -61 190
-125 96 -64 181 -120 189 -125 19 -11 -127 182 -207 274 -36 40 -56 69 -46 63
29 -15 234 -229 283 -294 24 -32 45 -58 46 -58 8 0 -20 81 -55 162 -21 48 -37
88 -34 88 2 0 31 -53 64 -117 54 -106 59 -114 53 -73 -3 25 -14 77 -24 115 -9
39 -16 71 -14 73 1 1 19 -43 40 -98 21 -55 40 -100 42 -100 8 0 -8 119 -28
215 -10 49 -19 92 -18 95 1 3 23 -60 50 -140 48 -141 49 -143 43 -80 -4 35
-15 105 -25 154 -10 50 -17 92 -15 93 4 4 52 -129 86 -237 l20 -65 -3 130 -4
130 27 -105 c36 -143 41 -149 35 -46 -11 181 -74 414 -156 578 -46 92 -137
229 -199 298 l-40 45 46 -70 c47 -71 157 -289 169 -335 3 -14 -11 8 -32 48
-52 100 -147 225 -193 256 -114 75 -257 92 -610 72 -146 -9 -416 -20 -600 -26
-446 -14 -602 -3 -1155 81 -364 56 -480 36 -735 -128 l-85 -55 130 131 c71 72
127 131 125 131 -3 0 -66 -45 -140 -101z m-23 -1215 c-3 -3 -12 -4 -19 -1 -8
3 -5 6 6 6 11 1 17 -2 13 -5z"/>
<path d="M18990 25468 c0 -4 38 -155 85 -335 47 -180 95 -367 107 -415 12 -48
24 -85 26 -83 5 5 -15 136 -44 290 -28 144 -171 594 -174 543z"/>
<path d="M19124 25435 c20 -141 119 -747 126 -770 6 -20 7 6 4 80 -7 156 -21
261 -54 410 -31 137 -83 331 -76 280z"/>
<path d="M22032 25352 c-80 -270 -130 -542 -137 -742 l-5 -145 54 290 c90 478
128 696 124 700 -2 3 -18 -44 -36 -103z"/>
<path d="M21911 25394 c-74 -279 -112 -588 -96 -790 5 -54 10 -92 12 -84 7 30
101 905 98 909 -2 1 -8 -14 -14 -35z"/>
<path d="M21757 25270 c-33 -191 -42 -373 -29 -563 13 -185 30 -278 31 -177 1
30 6 217 12 415 13 428 11 471 -14 325z"/>
<path d="M19275 25245 c3 -44 8 -192 12 -330 7 -264 20 -298 22 -57 1 144 -13
352 -30 427 -6 30 -7 21 -4 -40z"/>
<path d="M19381 25057 c-6 -117 -14 -250 -16 -297 l-4 -85 24 135 c18 104 24
172 25 292 0 86 -4 159 -8 162 -5 3 -14 -90 -21 -207z"/>
<path d="M19467 24959 c-27 -138 -46 -253 -44 -255 7 -7 55 174 71 266 16 93
31 240 25 240 -2 0 -26 -113 -52 -251z"/>
<path d="M21444 24980 c64 -144 236 -481 230 -450 -21 114 -144 366 -234 480
-17 22 -17 18 4 -30z"/>
<path d="M21409 24705 c174 -198 188 -210 109 -92 -44 65 -135 160 -188 197
-22 16 6 -22 79 -105z"/>
<path d="M17364 24049 c-408 -26 -883 -139 -1114 -266 -98 -53 -193 -127 -265
-206 -36 -39 -65 -75 -65 -79 0 -4 46 30 103 75 128 104 198 146 332 202 226
95 539 170 857 206 231 27 519 23 663 -9 173 -38 334 -106 537 -228 141 -84
136 -81 119 -61 -25 32 -196 156 -276 202 -169 96 -357 149 -585 165 -80 5
-154 9 -165 8 -11 0 -74 -4 -141 -9z"/>
<path d="M23330 23979 c-436 -26 -765 -163 -1073 -448 -108 -99 -222 -219
-215 -226 3 -3 61 41 129 98 339 280 482 369 719 445 194 62 306 76 600 77
165 0 299 -5 355 -13 350 -50 584 -121 790 -238 47 -27 154 -98 237 -157 83
-59 156 -111 162 -114 6 -3 -18 25 -54 62 -314 325 -704 476 -1335 515 -88 5
-167 9 -175 8 -8 0 -71 -4 -140 -9z"/>
<path d="M17235 23773 c-81 -7 -253 -46 -355 -80 -256 -85 -591 -278 -957
-551 -67 -50 -187 -128 -267 -173 -80 -46 -146 -86 -146 -90 0 -12 108 -22
174 -16 33 4 88 15 122 27 l60 21 85 -51 c231 -140 535 -272 720 -315 250 -57
545 -32 930 79 150 43 593 195 587 202 -2 1 -73 -15 -158 -36 -245 -62 -504
-117 -645 -136 -178 -25 -457 -25 -579 -1 -210 42 -440 140 -685 292 l-92 57
48 30 48 31 75 -42 c327 -184 511 -242 752 -240 l133 1 -108 14 c-185 22 -321
61 -433 124 -82 46 -313 210 -314 222 0 9 218 154 381 253 l124 75 6 -88 c19
-272 209 -503 468 -568 43 -11 82 -14 115 -9 82 10 318 66 350 82 51 26 179
164 214 230 61 116 89 301 63 414 l-8 37 76 -31 c173 -70 799 -416 754 -417
-64 -1 -531 -85 -670 -121 -140 -35 -304 -82 -301 -85 2 -2 58 8 123 21 167
33 301 52 510 70 99 8 230 20 291 25 60 6 131 10 156 10 39 0 47 3 52 23 15
56 11 60 -141 157 -587 373 -913 515 -1262 550 -99 10 -210 11 -296 3z m38
-194 c24 -30 21 -46 -12 -80 -25 -24 -37 -29 -80 -29 -60 0 -91 24 -91 68 0
74 132 103 183 41z m345 -95 c41 -29 19 -96 -31 -96 -36 0 -57 19 -57 50 0 29
26 62 49 62 9 0 27 -7 39 -16z"/>
<path d="M23430 23734 c-14 -2 -63 -9 -110 -15 -274 -37 -642 -216 -1209 -586
l-174 -114 27 -27 26 -27 278 -6 c452 -11 584 -27 1057 -131 276 -61 346 -65
447 -25 153 59 266 161 333 302 52 109 69 177 67 273 l-1 72 50 -26 c52 -26
381 -244 434 -288 17 -13 28 -26 25 -28 -59 -49 -163 -128 -229 -172 -139 -92
-292 -140 -531 -166 -58 -6 -107 -13 -109 -16 -11 -11 284 -2 369 10 157 24
317 92 499 211 80 53 84 54 111 40 16 -8 31 -19 34 -24 3 -5 -18 -29 -47 -53
-155 -132 -303 -213 -462 -254 -258 -67 -681 -34 -1330 101 -269 57 -250 48
140 -64 415 -120 611 -161 877 -183 350 -30 619 59 939 309 l56 44 94 -45 c52
-25 121 -52 154 -61 70 -18 166 -18 213 -2 l33 12 -183 105 c-100 58 -298 182
-438 275 -304 203 -442 287 -610 370 -202 101 -382 161 -545 185 -66 9 -231
11 -285 4z m-471 -282 c-30 -182 65 -423 213 -542 31 -25 55 -46 54 -48 -2 -1
-16 2 -32 8 -60 23 -294 80 -405 99 -133 23 -370 48 -549 59 l-125 8 190 126
c221 146 413 258 540 315 96 43 118 52 123 48 1 -1 -3 -34 -9 -73z m471 63
c57 -29 61 -74 9 -100 -69 -36 -169 0 -169 60 0 13 10 31 22 39 29 20 100 20
138 1z m428 -121 c29 -20 30 -69 1 -84 -47 -26 -98 15 -80 64 8 21 18 28 51
35 3 0 16 -6 28 -15z"/>
<path d="M22204 20203 c8 -21 52 -132 99 -248 128 -316 157 -424 157 -575 0
-212 -100 -358 -320 -468 -61 -30 -194 -81 -324 -123 -122 -39 -225 -75 -229
-79 -22 -20 279 40 404 80 85 28 215 89 273 129 48 33 144 131 175 180 64 100
92 249 72 381 -28 187 -119 425 -254 667 -54 97 -76 120 -53 56z"/>
<path d="M18786 20068 c-86 -156 -172 -372 -212 -533 -67 -273 -29 -483 113
-624 89 -88 196 -137 375 -172 75 -14 345 -29 398 -21 38 6 13 12 -160 36
-337 47 -460 87 -565 187 -95 89 -138 203 -138 359 0 147 33 270 182 688 28
78 49 142 46 142 -2 0 -20 -28 -39 -62z"/>
<path d="M19170 19358 c-89 -25 -126 -91 -118 -207 3 -41 13 -85 25 -108 22
-43 0 -35 303 -104 298 -67 407 -65 605 15 l86 35 92 -36 c248 -96 398 -95
684 1 l103 35 132 -34 c294 -74 497 -84 611 -32 119 54 199 175 199 301 0 68
-19 101 -73 128 -39 21 -160 24 -224 7 -142 -37 -261 -85 -495 -199 -343 -167
-395 -183 -600 -184 -199 -1 -277 18 -485 119 -478 231 -707 303 -845 263z"/>
<path d="M23299 16580 c-69 -11 -297 -67 -324 -80 -27 -13 -193 -64 -345 -105
-69 -19 -281 -66 -470 -104 -190 -38 -455 -97 -590 -131 -295 -75 -353 -80
-661 -55 -247 20 -318 16 -679 -36 -311 -45 -286 -48 -845 101 -229 61 -358
86 -620 120 -323 42 -485 78 -685 155 -222 85 -380 87 -380 5 0 -51 60 -82
185 -96 33 -3 94 -14 135 -25 166 -40 341 -70 665 -114 388 -51 413 -56 705
-125 361 -86 395 -92 555 -97 126 -4 184 -1 360 22 200 26 220 27 435 19 431
-17 428 -17 960 96 326 69 1175 222 1335 241 188 22 334 61 392 105 91 69 20
127 -128 104z"/>
</g>
</svg>
